<svg width="2547" height="766" viewBox="0 0 2547 766" fill="none" xmlns="http://www.w3.org/2000/svg">
<rect width="2547" height="766" fill="white"/>
<path d="M2083 200.529C2084.89 200.896 2086.78 201.262 2088.67 201.627C2131.69 210.287 2170.31 236.346 2194.94 272.592C2203.26 285.121 2209.92 298.378 2215 312.529C2215.29 313.318 2215.57 314.107 2215.87 314.92C2225.65 342.186 2229.29 369.69 2229.25 398.592C2229.25 399.364 2229.25 400.136 2229.25 400.932C2229.22 409.219 2228.83 417.253 2228 425.529C2136.59 425.529 2045.18 425.529 1951 425.529C1956.18 459.647 1956.18 459.647 1973 489.529C1973.67 490.335 1974.33 491.141 1975.02 491.971C1989 508.403 2009.67 517.026 2030.88 519.368C2058.64 521.476 2088.18 516.71 2110.12 498.467C2118.02 491.042 2123.66 481.874 2129 472.529C2159.69 472.529 2190.38 472.529 2222 472.529C2220.87 481.533 2220.87 481.533 2219.43 484.685C2219.12 485.39 2218.8 486.094 2218.47 486.82C2218.13 487.549 2217.79 488.278 2217.44 489.029C2216.9 490.193 2216.9 490.193 2216.36 491.381C2215.26 493.771 2214.13 496.152 2213 498.529C2212.48 499.623 2212.48 499.623 2211.95 500.74C2192.92 540.65 2160.11 572.467 2118.28 587.737C2083.5 599.823 2041.83 605.005 2005.49 597.064C2002.57 596.436 1999.63 595.894 1996.7 595.346C1951.77 586.571 1909.39 562.098 1883.06 524.017C1880.97 520.898 1878.96 517.73 1877 514.529C1876.61 513.898 1876.22 513.267 1875.82 512.616C1864.8 494.416 1857.2 474.527 1852.37 453.842C1852.18 453.018 1851.99 452.195 1851.79 451.346C1848.07 434.671 1846.47 418.343 1846.62 401.279C1846.63 400.343 1846.63 399.406 1846.64 398.441C1846.95 339.715 1867.18 287.767 1908.96 246.27C1925.47 230.204 1944.88 219.383 1966 210.529C1967.13 210.037 1968.25 209.544 1969.41 209.037C1985.4 202.386 2002.92 199.695 2020 197.529C2020.69 197.434 2021.37 197.339 2022.08 197.241C2042.46 194.635 2063 196.323 2083 200.529Z" fill="#35393D"/>
<path d="M942.648 196.805C985.019 195.536 1031.97 208.413 1064 237C1065.22 238.06 1065.22 238.06 1066.47 239.141C1069.02 241.386 1071.52 243.679 1074 246C1074.94 246.87 1075.87 247.74 1076.84 248.637C1112.3 282.38 1128.23 330.339 1133 378C1133 393.84 1133 409.68 1133 426C1041.26 426 949.52 426 855 426C859.564 455.669 864.566 483.425 889.25 502.375C914.13 518.973 943.749 523.76 973 518C993.686 513.409 1012.43 504.522 1024.48 486.418C1025.86 484.234 1027.14 482.029 1028.41 479.777C1028.94 478.861 1029.46 477.944 1030 477C1030.35 476.292 1030.69 475.584 1031.05 474.855C1034.15 471.902 1037.73 472.477 1041.79 472.546C1043.13 472.545 1043.13 472.545 1044.51 472.544C1047.48 472.547 1050.45 472.578 1053.42 472.609C1055.48 472.617 1057.53 472.622 1059.59 472.626C1065.01 472.642 1070.43 472.681 1075.85 472.725C1081.38 472.766 1086.91 472.784 1092.44 472.805C1103.3 472.848 1114.15 472.916 1125 473C1124.53 475.084 1124.06 477.168 1123.58 479.251C1123.32 480.411 1123.06 481.571 1122.79 482.767C1118.34 501.061 1108.01 517.987 1097 533C1096.07 534.301 1096.07 534.301 1095.12 535.629C1079.29 556.599 1058.51 571.781 1035 583C1034.34 583.327 1033.68 583.654 1032.99 583.991C1018.88 590.878 1003.31 593.944 988 597C987.316 597.14 986.633 597.28 985.929 597.424C973.491 599.922 961.356 600.561 948.687 600.5C947.73 600.499 946.772 600.497 945.785 600.496C929.024 600.434 913.351 598.854 897 595C895.972 594.77 894.944 594.54 893.885 594.303C857.748 586.146 828.174 568.977 802 543C801.148 542.161 800.296 541.322 799.418 540.457C782.261 522.497 770.243 498.184 762 475C761.755 474.325 761.511 473.651 761.259 472.956C753.092 449.874 750.778 424.254 750.812 399.937C750.813 399.157 750.814 398.377 750.814 397.573C750.836 387.043 750.971 376.653 752.649 366.234C753.056 363.641 753.397 361.043 753.742 358.441C755.826 343.649 759.767 329.973 765 316C765.244 315.329 765.489 314.657 765.741 313.965C775.689 286.972 793.864 261.353 816 243C816.964 242.148 817.928 241.296 818.922 240.418C826.159 234.05 833.571 228.743 842 224C842.623 223.642 843.246 223.284 843.889 222.915C874.37 205.499 907.917 198.664 942.648 196.805Z" fill="#35393D"/>
<path d="M551.875 197.5C553.088 197.493 553.088 197.493 554.327 197.486C592.556 197.4 629.106 209.167 656.51 236.444C682.171 263.24 691.227 304.119 691.12 340.111C691.122 341.723 691.122 341.723 691.123 343.367C691.125 346.943 691.119 350.518 691.114 354.094C691.113 356.667 691.113 359.24 691.114 361.813C691.114 367.34 691.111 372.866 691.106 378.393C691.098 386.384 691.095 394.375 691.094 402.366C691.092 415.332 691.085 428.299 691.075 441.266C691.066 453.856 691.059 466.447 691.055 479.038C691.055 480.203 691.055 480.203 691.054 481.392C691.053 485.291 691.052 489.189 691.05 493.087C691.04 525.391 691.022 557.696 691 590C656.02 590 621.04 590 585 590C584.951 573.054 584.902 556.108 584.852 538.648C584.816 527.911 584.78 517.174 584.742 506.437C584.722 500.795 584.702 495.154 584.683 489.512C584.68 488.805 584.678 488.098 584.675 487.369C584.635 475.977 584.603 464.584 584.572 453.192C584.541 441.487 584.503 429.783 584.457 418.078C584.432 411.509 584.41 404.94 584.397 398.372C584.384 392.181 584.362 385.991 584.333 379.801C584.324 377.536 584.318 375.271 584.316 373.007C584.303 361.482 584.119 350.362 582 339C581.871 338.218 581.742 337.436 581.609 336.631C578.744 319.916 571.189 303.404 557.363 293.019C539.62 281.667 516.51 279.518 496.113 283.25C477.999 287.614 461.28 297.714 451.093 313.634C447.201 320.128 444.095 326.706 442 334C441.665 335.096 441.33 336.191 440.984 337.32C433.303 364.777 434.524 393.623 434.494 421.849C434.484 427.777 434.458 433.706 434.434 439.634C434.391 450.817 434.362 462.001 434.339 473.184C434.306 488.327 434.251 503.469 434.197 518.611C434.113 542.407 434.059 566.204 434 590C399.35 590 364.7 590 329 590C329 463.61 329 337.22 329 207C361.67 207 394.34 207 428 207C428.33 224.16 428.66 241.32 429 259C432.465 254.05 432.465 254.05 436 249C438.498 246.088 440.986 243.274 443.625 240.5C444.322 239.767 445.018 239.033 445.736 238.278C455.585 228.096 466.551 220.65 479 214C479.816 213.54 480.632 213.08 481.473 212.605C489.529 208.252 498.223 205.498 507 203C507.869 202.751 508.738 202.503 509.634 202.247C523.661 198.431 537.42 197.524 551.875 197.5Z" fill="#35383D"/>
<path d="M1151 207C1187.3 207 1223.6 207 1261 207C1263.02 212.382 1264.93 217.728 1266.68 223.195C1267.19 224.795 1267.71 226.395 1268.23 227.994C1268.63 229.247 1268.63 229.247 1269.04 230.525C1273.78 245.255 1278.64 259.935 1283.69 274.562C1288.66 288.991 1293.44 303.466 1298.08 318.005C1300.7 326.198 1303.35 334.381 1306 342.562C1306.38 343.743 1306.38 343.743 1306.77 344.948C1310.48 356.38 1314.25 367.789 1318.07 379.183C1320.55 386.613 1323 394.055 1325.42 401.508C1325.72 402.426 1326.01 403.344 1326.32 404.29C1327.54 408.043 1328.75 411.796 1329.97 415.549C1333.99 427.956 1338.09 440.322 1342.51 452.591C1342.85 453.529 1343.18 454.467 1343.52 455.434C1343.81 456.228 1344.1 457.023 1344.4 457.842C1345 460 1345 460 1345 464C1345.66 464 1346.32 464 1347 464C1347.12 463.144 1347.24 462.289 1347.37 461.407C1348.01 457.953 1348.95 454.81 1350.07 451.484C1350.49 450.242 1350.91 448.999 1351.34 447.719C1351.79 446.396 1352.24 445.073 1352.69 443.75C1353.15 442.391 1353.6 441.031 1354.06 439.672C1355.37 435.78 1356.68 431.89 1358 428C1358.89 425.384 1359.77 422.767 1360.65 420.149C1361.31 418.182 1361.98 416.216 1362.65 414.25C1363.81 410.708 1364.82 407.129 1365.82 403.539C1368.13 395.397 1370.8 387.393 1373.5 379.375C1374.03 377.798 1374.56 376.221 1375.09 374.645C1376.18 371.381 1377.27 368.117 1378.37 364.854C1380.68 357.983 1382.97 351.105 1385.26 344.228C1386.5 340.485 1387.75 336.743 1389 333C1389.5 331.5 1390 330 1390.5 328.5C1391.5 325.5 1392.5 322.5 1393.5 319.5C1393.87 318.386 1393.87 318.386 1394.25 317.25C1394.75 315.75 1395.25 314.25 1395.75 312.751C1397 308.998 1398.25 305.244 1399.5 301.491C1401.74 294.777 1403.98 288.064 1406.22 281.353C1407.46 277.652 1408.7 273.951 1409.94 270.25C1410.18 269.524 1410.42 268.798 1410.67 268.051C1415.47 253.673 1420.16 239.258 1424.81 224.831C1425.08 224.01 1425.34 223.19 1425.62 222.344C1426.11 220.812 1426.61 219.279 1427.1 217.746C1428.28 214.094 1429.57 210.57 1431 207C1466.64 207 1502.28 207 1539 207C1537.78 212.481 1536.74 217.154 1534.86 222.301C1534.45 223.432 1534.05 224.564 1533.62 225.73C1533.19 226.912 1532.76 228.094 1532.31 229.312C1531.63 231.194 1530.95 233.075 1530.27 234.956C1529.6 236.82 1528.92 238.683 1528.25 240.546C1526.59 245.144 1524.98 249.757 1523.38 254.375C1521.05 261.041 1518.67 267.683 1516.25 274.312C1507.98 296.951 1500.01 319.699 1492.14 342.481C1488.53 352.958 1484.76 363.368 1480.88 373.75C1477.76 382.082 1474.88 390.391 1472.32 398.91C1470.71 404.065 1468.74 409.083 1466.81 414.125C1463 424.102 1459.56 434.176 1456.24 444.323C1453.5 452.649 1450.61 460.856 1447.34 468.984C1444.96 474.947 1443.05 480.998 1441.24 487.156C1440.08 490.927 1438.6 494.538 1437.11 498.188C1434.97 503.612 1433.07 509.126 1431.12 514.625C1428.34 522.485 1425.54 530.334 1422.56 538.125C1421.04 542.14 1419.62 546.12 1418.44 550.25C1417.44 553.753 1416.19 557.028 1414.75 560.375C1411.95 566.877 1409.67 573.532 1407.41 580.234C1407.13 581.065 1406.84 581.897 1406.55 582.754C1406.3 583.5 1406.05 584.246 1405.79 585.014C1405 587 1405 587 1403 590C1400.93 590.369 1400.93 590.369 1398.32 590.361C1396.84 590.367 1396.84 590.367 1395.33 590.373C1394.24 590.362 1393.15 590.352 1392.03 590.341C1390.32 590.341 1390.32 590.341 1388.57 590.342C1384.79 590.34 1381 590.316 1377.21 590.293C1374.59 590.287 1371.97 590.283 1369.35 590.28C1363.15 590.271 1356.95 590.246 1350.75 590.216C1343.69 590.183 1336.63 590.166 1329.57 590.151C1315.05 590.12 1300.52 590.067 1286 590C1285.73 589.255 1285.47 588.51 1285.19 587.742C1279.79 572.595 1274.38 557.449 1268.94 542.312C1268.64 541.49 1268.35 540.668 1268.04 539.821C1266.84 536.485 1265.65 533.148 1264.45 529.811C1262.78 525.176 1261.12 520.54 1259.46 515.902C1256.1 506.543 1252.71 497.201 1249.23 487.888C1245.24 477.223 1241.44 466.526 1237.9 455.707C1235.42 448.172 1232.74 440.724 1230 433.283C1227.55 426.607 1225.28 419.883 1223.06 413.125C1220.44 405.129 1217.63 397.235 1214.62 389.375C1211.29 380.633 1208.23 371.829 1205.31 362.938C1201.34 350.844 1197.13 338.848 1192.81 326.875C1192.51 326.032 1192.2 325.188 1191.89 324.32C1190.71 321.045 1189.53 317.771 1188.34 314.497C1186.22 308.613 1184.12 302.72 1182.06 296.812C1181.8 296.053 1181.53 295.293 1181.26 294.511C1180.24 291.59 1179.23 288.668 1178.22 285.745C1174.72 275.615 1171.1 265.53 1167.39 255.474C1163.26 244.269 1159.22 233.037 1155.31 221.75C1155.09 221.116 1154.87 220.483 1154.64 219.83C1154.03 218.049 1153.41 216.267 1152.8 214.484C1152.45 213.471 1152.1 212.457 1151.74 211.413C1151 209 1151 209 1151 207Z" fill="#35393E"/>
<path d="M1828 200.529C1829.92 202.451 1829.12 205.316 1829.12 207.873C1829.12 208.786 1829.12 209.698 1829.11 210.639C1829.11 211.595 1829.11 212.551 1829.11 213.536C1829.11 216.712 1829.11 219.888 1829.1 223.064C1829.1 225.26 1829.09 227.456 1829.09 229.652C1829.09 235.443 1829.08 241.235 1829.07 247.027C1829.06 252.932 1829.05 258.837 1829.05 264.742C1829.04 276.338 1829.02 287.933 1829 299.529C1827.4 299.54 1825.79 299.548 1824.19 299.554C1823.29 299.559 1822.4 299.564 1821.48 299.568C1818.75 299.525 1816.23 299.177 1813.56 298.592C1808.04 297.505 1802.62 296.834 1797 296.529C1795.79 296.463 1794.58 296.398 1793.34 296.33C1776.72 295.739 1759.06 298.265 1744 305.529C1743.05 305.982 1742.11 306.434 1741.13 306.9C1725.1 315.101 1713.61 327.892 1705 343.529C1704.48 344.453 1703.96 345.378 1703.42 346.33C1686.49 379.34 1688.86 418.421 1688.7 454.39C1688.67 459.155 1688.65 463.919 1688.62 468.684C1688.57 477.672 1688.53 486.659 1688.48 495.647C1688.42 507.817 1688.36 519.987 1688.29 532.156C1688.19 551.281 1688.1 570.405 1688 589.529C1653.02 589.529 1618.04 589.529 1582 589.529C1582 463.139 1582 336.749 1582 206.529C1615.33 206.529 1648.66 206.529 1683 206.529C1683.33 229.629 1683.66 252.729 1684 276.529C1686.97 271.249 1689.94 265.969 1693 260.529C1695.61 256.758 1698.19 253.13 1701 249.529C1701.66 248.678 1702.32 247.828 1703 246.951C1704.97 244.448 1706.97 241.982 1709 239.529C1709.96 238.369 1709.96 238.369 1710.93 237.185C1715.76 231.527 1721.08 227.006 1727 222.529C1727.62 222.029 1728.25 221.529 1728.89 221.014C1739.32 212.777 1750.13 206.903 1763 203.529C1764.46 203.021 1765.92 202.501 1767.38 201.967C1786.82 195.614 1808.2 195.509 1828 200.529Z" fill="#353A3E"/>
<path d="M998.926 293.227C1007.65 300.369 1012.92 309.046 1018 319C1018.59 320.132 1019.17 321.264 1019.78 322.43C1024.53 332.506 1029 345.772 1029 357C971.58 357 914.16 357 855 357C857.499 332.015 867.399 310.248 886.341 293.357C891.105 289.459 896.495 286.696 902 284C902.964 283.519 903.928 283.038 904.922 282.543C935.187 268.706 972.498 273.115 998.926 293.227Z" fill="#FCFCFA"/>
<path d="M2099.93 285.698C2108.65 292.84 2113.92 301.517 2119 311.471C2119.59 312.603 2120.17 313.735 2120.78 314.901C2125.53 324.977 2130 338.243 2130 349.471C2072.58 349.471 2015.16 349.471 1956 349.471C1958.5 324.486 1968.4 302.72 1987.34 285.829C1992.11 281.931 1997.5 279.167 2003 276.471C2003.96 275.991 2004.93 275.51 2005.92 275.014C2036.19 261.178 2073.5 265.586 2099.93 285.698Z" fill="#FCFCFA"/>
<path d="M2010.19 357.938C2011.09 357.947 2011.99 357.956 2012.92 357.965C2013.61 357.977 2014.29 357.988 2015 358C2014.34 358.66 2013.68 359.32 2013 360C2012.34 359.67 2011.68 359.34 2011 359C2010.67 359.99 2010.34 360.98 2010 362C2009 362 2008 362 2007 362C2005.33 362.326 2003.67 362.659 2002 363C2002 361.68 2002 360.36 2002 359C2005.01 357.995 2007.04 357.897 2010.19 357.938Z" fill="#3B3F42"/>
<path d="M1452 422C1452.99 422.495 1452.99 422.495 1454 423C1454.41 425.285 1454.41 425.285 1454.62 428.062C1454.7 428.982 1454.77 429.901 1454.85 430.848C1454.93 431.913 1454.93 431.913 1455 433C1454.01 433.33 1453.02 433.66 1452 434C1452 430.04 1452 426.08 1452 422Z" fill="#131B22"/>
<path d="M1461 422C1461.66 422.33 1462.32 422.66 1463 423C1462.34 425.64 1461.68 428.28 1461 431C1459.5 429.625 1459.5 429.625 1458 428C1458 427.34 1458 426.68 1458 426C1458.99 426 1459.98 426 1461 426C1461 424.68 1461 423.36 1461 422Z" fill="#485253"/>
</svg>
