<svg width="1309" height="334" viewBox="0 0 1309 334" fill="none" xmlns="http://www.w3.org/2000/svg">
<path fill-rule="evenodd" clip-rule="evenodd" d="M316.465 92.3066C340.308 92.3066 360.62 97.6051 377.398 108.202C394.177 118.799 406.688 132.634 414.93 149.707C423.466 166.78 427.734 184.883 427.734 204.017C427.734 209.904 427.44 216.675 426.852 224.328H259.529C261.524 239.995 266.815 252.8 275.401 262.742C286.587 275.4 301.747 281.729 320.881 281.729C333.833 281.728 344.724 278.933 353.555 273.34C362.68 267.747 368.568 259.946 371.217 249.938H426.41C423.761 266.127 417.579 280.257 407.865 292.326C398.151 304.101 385.641 313.078 370.334 319.26C355.321 325.441 338.395 328.532 319.556 328.532C295.418 328.532 274.665 322.94 257.298 311.754C239.931 300.568 226.832 285.997 218.001 268.041C209.17 250.085 204.755 230.804 204.755 210.198C204.755 189.593 208.875 170.312 217.117 152.356C225.654 134.4 238.312 119.976 255.091 109.085C271.869 97.8993 292.327 92.3067 316.465 92.3066ZM316.465 134.694C304.396 134.694 293.946 137.638 285.115 143.525C276.579 149.413 269.956 157.949 265.246 169.135C263.621 173.251 262.296 177.667 261.27 182.381H367.685C366.801 173.256 364.299 165.161 360.178 158.097C356.057 150.738 350.17 144.997 342.517 140.876C335.158 136.755 326.473 134.694 316.465 134.694Z" fill="black"/>
<path d="M628.104 92.3066C644.882 92.3066 660.042 95.2495 673.583 101.137C687.124 107.024 698.163 115.413 706.699 126.305C715.53 137.196 720.829 150.149 722.595 165.161H668.284C667.107 156.33 662.544 149.412 654.597 144.408C646.943 139.404 638.112 136.902 628.104 136.902C618.978 136.902 611.619 138.816 606.026 142.643C600.434 146.469 597.638 151.621 597.638 158.097C597.638 163.395 599.698 167.811 603.819 171.343C608.235 174.875 614.417 177.377 622.364 178.849L658.129 186.355C680.206 190.771 697.132 198.13 708.906 208.433C720.975 218.735 727.01 234.631 727.01 256.119C727.01 269.365 723.036 281.582 715.088 292.768C707.14 303.659 695.955 312.342 681.531 318.818C667.402 325.294 651.211 328.532 632.961 328.532C613.533 328.532 596.312 325.147 581.3 318.377C566.288 311.312 554.366 301.451 545.535 288.794C536.999 276.136 532.436 261.712 531.848 245.522H586.157C586.746 254.648 591.456 262.89 600.287 270.249C609.118 277.608 620.009 281.287 632.961 281.287C644.147 281.287 653.125 279.08 659.896 274.664C666.96 270.249 670.492 264.508 670.492 257.443C670.492 251.556 668.284 246.847 663.869 243.314C659.748 239.488 653.713 236.838 645.766 235.366L610.001 227.86C589.69 223.445 573.352 215.939 560.989 205.342C548.626 194.45 542.444 178.702 542.444 158.097C542.444 146.028 545.976 134.989 553.041 124.98C560.106 114.972 570.114 107.024 583.066 101.137C596.018 95.2496 611.031 92.3067 628.104 92.3066Z" fill="black"/>
<path fill-rule="evenodd" clip-rule="evenodd" d="M851.64 92.3066C865.475 92.3067 878.279 95.1025 890.054 100.695C901.828 105.994 911.101 113.059 917.871 121.89V95.8389H973.506V325H917.871V298.066C912.573 306.897 903.889 314.256 891.82 320.144C880.046 325.736 866.946 328.532 852.522 328.532C829.857 328.532 810.281 323.676 793.797 313.962C777.313 303.954 764.655 289.971 755.824 272.015C747.288 254.059 743.02 233.453 743.02 210.198C743.02 186.944 747.435 166.486 756.266 148.824C765.097 130.868 777.607 117.032 793.797 107.318C810.281 97.31 829.562 92.3066 851.64 92.3066ZM860.471 140.435C848.402 140.435 837.804 143.378 828.679 149.266C819.554 154.859 812.342 162.954 807.044 173.551C802.04 184.148 799.537 196.363 799.537 210.198C799.537 224.033 802.04 236.397 807.044 247.288C812.342 257.885 819.554 266.127 828.679 272.015C837.804 277.608 848.402 280.404 860.471 280.404C872.539 280.404 883.137 277.607 892.262 272.015C901.681 266.127 908.893 257.885 913.897 247.288C918.902 236.691 921.403 224.328 921.403 210.198C921.403 196.363 918.901 184.148 913.897 173.551C908.893 162.954 901.681 154.859 892.262 149.266C883.137 143.378 872.539 140.435 860.471 140.435Z" fill="black"/>
<path d="M57.9199 177.082L140.93 95.8379H217.317L124.151 185.472L223.94 325H155.06L86.1787 223.003L57.9199 249.938V325H2.28516V3.11328H57.9199V177.082Z" fill="black"/>
<path d="M511.849 325H456.214V3.11328H511.849V325Z" fill="black"/>
<path d="M1307 212L1276 222V224C1308 258 1285 301.5 1231.08 309.794L1086 332V324L1219 235V231L1066 262V254L1156 211V209L1066 166V158L1219 189V185L1086 96V88L1231.08 110.206C1285 118.5 1308 162 1276 196V198L1307 208V212Z" fill="#6105C7"/>
</svg>
